<?xml version="1.0" encoding="UTF-8" standalone="no"?>
<!DOCTYPE svg PUBLIC "-//W3C//DTD SVG 1.1//EN"
 "http://www.w3.org/Graphics/SVG/1.1/DTD/svg11.dtd">
<!-- Generated by graphviz version 2.38.0 (20140413.2041)
 -->
<!-- Title: gProject Pages: 1 -->
<svg width="1042pt" height="67pt"
 viewBox="0.00 0.00 1041.50 67.00" xmlns="http://www.w3.org/2000/svg" xmlns:xlink="http://www.w3.org/1999/xlink">
<g id="graph0" class="graph" transform="scale(1 1) rotate(0) translate(4 63)">
<title>gProject</title>
<polygon fill="white" stroke="none" points="-4,4 -4,-63 1037.5,-63 1037.5,4 -4,4"/>
<text text-anchor="middle" x="116" y="-43.8" font-family="Times New Roman,serif" font-size="14.00">Project ReqAggregator&#45;v2 import map</text>
<!-- n1 -->
<g id="node1" class="node"><title>n1</title>
<g id="a_node1"><a xlink:href="file:///C:/SadlWorkspace25/ReqAggregator-v2/Graphs/SadlBuiltinFunctions.owl.svg" xlink:title="http://sadl.org/builtinfunctions">
<polygon fill="none" stroke="black" points="183,-36 0,-36 0,-0 183,-0 183,-36"/>
<text text-anchor="middle" x="91.5" y="-14.3" font-family="Times New Roman,serif" font-size="14.00">http://sadl.org/builtinfunctions</text>
</a>
</g>
</g>
<!-- n2 -->
<g id="node2" class="node"><title>n2</title>
<g id="a_node2"><a xlink:href="file:///C:/SadlWorkspace25/ReqAggregator-v2/Graphs/SadlBaseModel.owl.svg" xlink:title="http://sadl.org/sadlbasemodel">
<polygon fill="none" stroke="black" points="381.5,-36 201.5,-36 201.5,-0 381.5,-0 381.5,-36"/>
<text text-anchor="middle" x="291.5" y="-14.3" font-family="Times New Roman,serif" font-size="14.00">http://sadl.org/sadlbasemodel</text>
</a>
</g>
</g>
<!-- n3 -->
<g id="node3" class="node"><title>n3</title>
<g id="a_node3"><a xlink:href="file:///C:/SadlWorkspace25/ReqAggregator-v2/Graphs/SadlListModel.owl.svg" xlink:title="http://sadl.org/sadllistmodel">
<polygon fill="none" stroke="black" points="569.5,-36 399.5,-36 399.5,-0 569.5,-0 569.5,-36"/>
<text text-anchor="middle" x="484.5" y="-14.3" font-family="Times New Roman,serif" font-size="14.00">http://sadl.org/sadllistmodel</text>
</a>
</g>
</g>
<!-- n4 -->
<g id="node4" class="node"><title>n4</title>
<g id="a_node4"><a xlink:href="file:///C:/SadlWorkspace25/ReqAggregator-v2/Graphs/SadlImplicitModel.owl.svg" xlink:title="http://sadl.org/sadlimplicitmodel">
<polygon fill="none" stroke="black" points="783,-36 588,-36 588,-0 783,-0 783,-36"/>
<text text-anchor="middle" x="685.5" y="-14.3" font-family="Times New Roman,serif" font-size="14.00">http://sadl.org/sadlimplicitmodel</text>
</a>
</g>
</g>
<!-- n5 -->
<g id="node5" class="node"><title>n5</title>
<g id="a_node5"><a xlink:href="file:///C:/SadlWorkspace25/ReqAggregator-v2/Graphs/RequestAggregator.owl.svg" xlink:title="http://sadl.org/RequestAggregator.sadl">
<polygon fill="none" stroke="black" points="1033.5,-36 801.5,-36 801.5,-0 1033.5,-0 1033.5,-36"/>
<text text-anchor="middle" x="917.5" y="-14.3" font-family="Times New Roman,serif" font-size="14.00">http://sadl.org/RequestAggregator.sadl</text>
</a>
</g>
</g>
</g>
</svg>
