<?xml version="1.0" encoding="UTF-8" standalone="no"?>
<!DOCTYPE svg PUBLIC "-//W3C//DTD SVG 1.1//EN"
 "http://www.w3.org/Graphics/SVG/1.1/DTD/svg11.dtd">
<!-- Generated by graphviz version 2.38.0 (20140413.2041)
 -->
<!-- Title: gnull Pages: 1 -->
<svg width="1106pt" height="328pt"
 viewBox="0.00 0.00 1106.00 328.00" xmlns="http://www.w3.org/2000/svg" xmlns:xlink="http://www.w3.org/1999/xlink">
<g id="graph0" class="graph" transform="scale(1 1) rotate(0) translate(4 324)">
<title>gnull</title>
<polygon fill="white" stroke="none" points="-4,4 -4,-324 1102,-324 1102,4 -4,4"/>
<text text-anchor="middle" x="74" y="-304.8" font-family="Times New Roman,serif" font-size="14.00">Graph of Ontology File</text>
<!-- n1 -->
<g id="node1" class="node"><title>n1</title>
<polygon fill="#00008b" stroke="black" points="111,-123 57,-123 57,-87 111,-87 111,-123"/>
<text text-anchor="middle" x="84" y="-101.3" font-family="Times New Roman,serif" font-size="14.00" fill="white">VPM</text>
</g>
<!-- n2 -->
<g id="node2" class="node"><title>n2</title>
<g id="a_node2"><a xlink:href="file:///C:/SadlWorkspace25/ReqAggregator-v2/Graphs/XMLSchema.svg" xlink:title="xsd:string">
<polygon fill="none" stroke="black" points="303.5,-36 232.5,-36 232.5,-0 303.5,-0 303.5,-36"/>
<text text-anchor="middle" x="268" y="-14.3" font-family="Times New Roman,serif" font-size="14.00">xsd:string</text>
</a>
</g>
</g>
<!-- n1&#45;&gt;n2 -->
<g id="edge1" class="edge"><title>n1&#45;&gt;n2</title>
<path fill="none" stroke="#00cd00" d="M97.4461,-86.8293C106.859,-75.9174 120.336,-62.3265 135,-54 161.88,-38.7375 195.586,-29.9608 222.341,-25.0133"/>
<polygon fill="#00cd00" stroke="#00cd00" points="222.971,-28.4564 232.226,-23.2991 221.774,-21.5594 222.971,-28.4564"/>
<text text-anchor="middle" x="161.5" y="-57.8" font-family="Times New Roman,serif" font-size="14.00">vehicleID</text>
</g>
<!-- n3 -->
<g id="node3" class="node"><title>n3</title>
<polygon fill="#00008b" stroke="black" points="111,-36 57,-36 57,-0 111,-0 111,-36"/>
<text text-anchor="middle" x="84" y="-14.3" font-family="Times New Roman,serif" font-size="14.00" fill="white">Plan</text>
</g>
<!-- n1&#45;&gt;n3 -->
<g id="edge2" class="edge"><title>n1&#45;&gt;n3</title>
<path fill="none" stroke="#00cd00" d="M84,-86.799C84,-75.1626 84,-59.5479 84,-46.2368"/>
<polygon fill="#00cd00" stroke="#00cd00" points="87.5001,-46.1754 84,-36.1754 80.5001,-46.1755 87.5001,-46.1754"/>
<text text-anchor="middle" x="96" y="-57.8" font-family="Times New Roman,serif" font-size="14.00">plan</text>
</g>
<!-- n4 -->
<g id="node4" class="node"><title>n4</title>
<polygon fill="#00008b" stroke="black" points="830,-297 738,-297 738,-261 830,-261 830,-297"/>
<text text-anchor="middle" x="784" y="-275.3" font-family="Times New Roman,serif" font-size="14.00" fill="white">RoutePlanner</text>
</g>
<!-- n5 -->
<g id="node5" class="node"><title>n5</title>
<polygon fill="#00008b" stroke="black" points="922.5,-210 835.5,-210 835.5,-174 922.5,-174 922.5,-210"/>
<text text-anchor="middle" x="879" y="-188.3" font-family="Times New Roman,serif" font-size="14.00" fill="white">VehicleType</text>
</g>
<!-- n4&#45;&gt;n5 -->
<g id="edge3" class="edge"><title>n4&#45;&gt;n5</title>
<path fill="none" stroke="#00cd00" d="M788.59,-260.99C792.162,-250.42 798.044,-237.15 807,-228 812.606,-222.274 819.338,-217.351 826.406,-213.161"/>
<polygon fill="#00cd00" stroke="#00cd00" points="828.357,-216.085 835.478,-208.24 825.019,-209.932 828.357,-216.085"/>
<text text-anchor="middle" x="841" y="-231.8" font-family="Times New Roman,serif" font-size="14.00">vehicleType</text>
</g>
<!-- n6 -->
<g id="node6" class="node"><title>n6</title>
<polygon fill="#00008b" stroke="black" points="464,-297 362,-297 362,-261 464,-261 464,-297"/>
<text text-anchor="middle" x="413" y="-275.3" font-family="Times New Roman,serif" font-size="14.00" fill="white">ReqAggregator</text>
</g>
<!-- n7 -->
<g id="node7" class="node"><title>n7</title>
<polygon fill="#00008b" stroke="black" points="420,-123 366,-123 366,-87 420,-87 420,-123"/>
<text text-anchor="middle" x="393" y="-101.3" font-family="Times New Roman,serif" font-size="14.00" fill="white">RRM</text>
</g>
<!-- n6&#45;&gt;n7 -->
<g id="edge4" class="edge"><title>n6&#45;&gt;n7</title>
<path fill="none" stroke="#00cd00" d="M463.609,-260.838C508.025,-242.827 562.076,-211.883 538,-174 514.483,-136.997 464.922,-119.779 430.325,-112.012"/>
<polygon fill="#00cd00" stroke="#00cd00" points="430.616,-108.498 420.113,-109.893 429.194,-115.352 430.616,-108.498"/>
<text text-anchor="middle" x="575" y="-188.3" font-family="Times New Roman,serif" font-size="14.00">requestList</text>
</g>
<!-- n8 -->
<g id="node8" class="node"><title>n8</title>
<polygon fill="#00008b" stroke="black" points="156,-210 0,-210 0,-174 156,-174 156,-210"/>
<text text-anchor="middle" x="78" y="-188.3" font-family="Times New Roman,serif" font-size="14.00" fill="white">RoutePlanGeneratedMsg</text>
</g>
<!-- n6&#45;&gt;n8 -->
<g id="edge5" class="edge"><title>n6&#45;&gt;n8</title>
<path fill="none" stroke="#00cd00" d="M361.706,-276.681C317.453,-273.901 252.696,-265.836 201,-243 191.159,-238.653 191.46,-233.125 182,-228 171.959,-222.561 160.919,-217.75 149.897,-213.571"/>
<polygon fill="#00cd00" stroke="#00cd00" points="150.836,-210.189 140.242,-210.062 148.445,-216.768 150.836,-210.189"/>
<text text-anchor="middle" x="228" y="-231.8" font-family="Times New Roman,serif" font-size="14.00">received2</text>
</g>
<!-- n9 -->
<g id="node9" class="node"><title>n9</title>
<polygon fill="#00008b" stroke="black" points="736.5,-123 591.5,-123 591.5,-87 736.5,-87 736.5,-123"/>
<text text-anchor="middle" x="664" y="-101.3" font-family="Times New Roman,serif" font-size="14.00" fill="white">RoutePlanRequestMsg</text>
</g>
<!-- n6&#45;&gt;n9 -->
<g id="edge6" class="edge"><title>n6&#45;&gt;n9</title>
<path fill="none" stroke="#00cd00" d="M464.354,-271.636C507.813,-263.83 569.342,-246.765 610,-210 633.135,-189.08 647.927,-155.917 656.072,-132.678"/>
<polygon fill="#00cd00" stroke="#00cd00" points="659.427,-133.679 659.256,-123.085 652.784,-131.473 659.427,-133.679"/>
<text text-anchor="middle" x="654" y="-188.3" font-family="Times New Roman,serif" font-size="14.00">send1</text>
</g>
<!-- n10 -->
<g id="node10" class="node"><title>n10</title>
<polygon fill="#00008b" stroke="black" points="306,-210 174,-210 174,-174 306,-174 306,-210"/>
<text text-anchor="middle" x="240" y="-188.3" font-family="Times New Roman,serif" font-size="14.00" fill="white">RouteGeneratedMsg</text>
</g>
<!-- n6&#45;&gt;n10 -->
<g id="edge7" class="edge"><title>n6&#45;&gt;n10</title>
<path fill="none" stroke="#00cd00" d="M387.269,-260.9C368.487,-248.574 344.543,-233.228 334,-228 323.623,-222.854 312.292,-218.019 301.204,-213.682"/>
<polygon fill="#00cd00" stroke="#00cd00" points="302.144,-210.294 291.553,-210.002 299.65,-216.835 302.144,-210.294"/>
<text text-anchor="middle" x="377" y="-231.8" font-family="Times New Roman,serif" font-size="14.00">send2</text>
</g>
<!-- n11 -->
<g id="node11" class="node"><title>n11</title>
<polygon fill="#00008b" stroke="black" points="445.5,-210 324.5,-210 324.5,-174 445.5,-174 445.5,-210"/>
<text text-anchor="middle" x="385" y="-188.3" font-family="Times New Roman,serif" font-size="14.00" fill="white">RouteRequestMsg</text>
</g>
<!-- n6&#45;&gt;n11 -->
<g id="edge8" class="edge"><title>n6&#45;&gt;n11</title>
<path fill="none" stroke="#00cd00" d="M407.334,-260.799C403.463,-249.047 398.255,-233.238 393.842,-219.842"/>
<polygon fill="#00cd00" stroke="#00cd00" points="397.111,-218.578 390.658,-210.175 390.462,-220.768 397.111,-218.578"/>
<text text-anchor="middle" x="428" y="-231.8" font-family="Times New Roman,serif" font-size="14.00">received1</text>
</g>
<!-- n7&#45;&gt;n2 -->
<g id="edge14" class="edge"><title>n7&#45;&gt;n2</title>
<path fill="none" stroke="#00cd00" d="M369.567,-86.7874C356.074,-76.9957 338.723,-64.6074 323,-54 316.936,-49.9094 310.429,-45.6537 304.089,-41.5768"/>
<polygon fill="#00cd00" stroke="#00cd00" points="305.916,-38.5909 295.604,-36.1607 302.15,-44.4913 305.916,-38.5909"/>
<text text-anchor="middle" x="355" y="-57.8" font-family="Times New Roman,serif" font-size="14.00">rrid</text>
</g>
<!-- n7&#45;&gt;n7 -->
<g id="edge29" class="edge"><title>n7&#45;&gt;n7</title>
<path fill="none" stroke="#008b8b" stroke-dasharray="5,2" d="M420.241,-112.867C430.024,-113.036 438,-110.414 438,-105 438,-101.701 435.038,-99.4382 430.51,-98.2123"/>
<polygon fill="#008b8b" stroke="#008b8b" points="430.552,-94.6975 420.241,-97.1327 429.82,-101.659 430.552,-94.6975"/>
<text text-anchor="middle" x="450.5" y="-108.8" font-family="Times New Roman,serif" font-size="14.00">list</text>
<text text-anchor="middle" x="450.5" y="-93.8" font-family="Times New Roman,serif" font-size="14.00">type</text>
</g>
<!-- n16 -->
<g id="node16" class="node"><title>n16</title>
<polygon fill="#00008b" stroke="black" points="676.5,-36 595.5,-36 595.5,-0 676.5,-0 676.5,-36"/>
<text text-anchor="middle" x="636" y="-14.3" font-family="Times New Roman,serif" font-size="14.00" fill="white">VehicleInfo</text>
</g>
<!-- n7&#45;&gt;n16 -->
<g id="edge16" class="edge"><title>n7&#45;&gt;n16</title>
<path fill="none" stroke="#00cd00" d="M420.411,-96.722C441.601,-90.6165 471.374,-80.9788 496,-69 506.975,-63.6617 507.929,-59.135 519,-54 540.087,-44.2193 564.572,-36.3967 585.676,-30.6488"/>
<polygon fill="#00cd00" stroke="#00cd00" points="586.647,-34.0124 595.422,-28.0745 584.86,-27.2445 586.647,-34.0124"/>
<text text-anchor="middle" x="524" y="-57.8" font-family="Times New Roman,serif" font-size="14.00">vi</text>
</g>
<!-- n17 -->
<g id="node17" class="node"><title>n17</title>
<g id="a_node17"><a xlink:href="file:///C:/SadlWorkspace25/ReqAggregator-v2/Graphs/XMLSchema.svg" xlink:title="xsd:int">
<polygon fill="none" stroke="black" points="416,-36 362,-36 362,-0 416,-0 416,-36"/>
<text text-anchor="middle" x="389" y="-14.3" font-family="Times New Roman,serif" font-size="14.00">xsd:int</text>
</a>
</g>
</g>
<!-- n7&#45;&gt;n17 -->
<g id="edge15" class="edge"><title>n7&#45;&gt;n17</title>
<path fill="none" stroke="#00cd00" d="M391.311,-86.9257C390.808,-81.2301 390.309,-74.8466 390,-69 389.612,-61.6601 389.372,-53.7069 389.223,-46.3487"/>
<polygon fill="#00cd00" stroke="#00cd00" points="392.72,-46.0792 389.065,-36.1345 385.721,-46.1874 392.72,-46.0792"/>
<text text-anchor="middle" x="443" y="-57.8" font-family="Times New Roman,serif" font-size="14.00">numPlansReceived</text>
</g>
<!-- n8&#45;&gt;n1 -->
<g id="edge11" class="edge"><title>n8&#45;&gt;n1</title>
<path fill="none" stroke="#00cd00" d="M79.2142,-173.799C80.0356,-162.163 81.1378,-146.548 82.0774,-133.237"/>
<polygon fill="#00cd00" stroke="#00cd00" points="85.5747,-133.397 82.7876,-123.175 78.5921,-132.904 85.5747,-133.397"/>
<text text-anchor="middle" x="94.5" y="-144.8" font-family="Times New Roman,serif" font-size="14.00">vpm</text>
</g>
<!-- n9&#45;&gt;n2 -->
<g id="edge26" class="edge"><title>n9&#45;&gt;n2</title>
<path fill="none" stroke="#00cd00" d="M604.377,-86.9574C588.431,-81.7852 571.363,-75.6819 556,-69 543.412,-63.525 542.096,-58.1158 529,-54 453.987,-30.4247 430.751,-47.7237 353,-36 340.201,-34.0701 326.408,-31.5182 313.733,-28.9799"/>
<polygon fill="#00cd00" stroke="#00cd00" points="314.347,-25.533 303.849,-26.9594 312.945,-32.3912 314.347,-25.533"/>
<text text-anchor="middle" x="600.5" y="-57.8" font-family="Times New Roman,serif" font-size="14.00">routeRequestID</text>
</g>
<!-- n15 -->
<g id="node15" class="node"><title>n15</title>
<polygon fill="#00008b" stroke="black" points="1012,-36 824,-36 824,-0 1012,-0 1012,-36"/>
<text text-anchor="middle" x="918" y="-14.3" font-family="Times New Roman,serif" font-size="14.00" fill="white">&#45;37416665:15d416c1c27:&#45;31ed</text>
</g>
<!-- n9&#45;&gt;n15 -->
<g id="edge24" class="edge"><title>n9&#45;&gt;n15</title>
<path fill="none" stroke="#00cd00" d="M690.773,-86.8228C712.059,-73.2765 739.198,-56.2927 745,-54 758.32,-48.7364 784.98,-42.6501 813.46,-37.0438"/>
<polygon fill="#00cd00" stroke="#00cd00" points="814.439,-40.4194 823.592,-35.0829 813.109,-33.547 814.439,-40.4194"/>
<text text-anchor="middle" x="776" y="-57.8" font-family="Times New Roman,serif" font-size="14.00">vehicleInfo</text>
</g>
<!-- n9&#45;&gt;n16 -->
<g id="edge25" class="edge"><title>n9&#45;&gt;n16</title>
<path fill="none" stroke="#00cd00" d="M658.334,-86.799C654.463,-75.0474 649.255,-59.2383 644.842,-45.8421"/>
<polygon fill="#00cd00" stroke="#00cd00" points="648.111,-44.5783 641.658,-36.1754 641.462,-46.7685 648.111,-44.5783"/>
<text text-anchor="middle" x="683" y="-57.8" font-family="Times New Roman,serif" font-size="14.00">vehicleInfo</text>
</g>
<!-- n10&#45;&gt;n2 -->
<g id="edge19" class="edge"><title>n10&#45;&gt;n2</title>
<path fill="none" stroke="#00cd00" d="M228.693,-173.814C216.471,-152.982 200.109,-116.946 211,-87 217.003,-70.493 228.967,-55.2004 240.39,-43.3152"/>
<polygon fill="#00cd00" stroke="#00cd00" points="243.113,-45.5442 247.751,-36.0184 238.185,-40.573 243.113,-45.5442"/>
<text text-anchor="middle" x="216.5" y="-101.3" font-family="Times New Roman,serif" font-size="14.00">id</text>
</g>
<!-- n12 -->
<g id="node12" class="node"><title>n12</title>
<polygon fill="#00008b" stroke="black" points="305,-123 231,-123 231,-87 305,-87 305,-123"/>
<text text-anchor="middle" x="268" y="-101.3" font-family="Times New Roman,serif" font-size="14.00" fill="white">RoutePlan</text>
</g>
<!-- n10&#45;&gt;n12 -->
<g id="edge18" class="edge"><title>n10&#45;&gt;n12</title>
<path fill="none" stroke="#00cd00" d="M245.666,-173.799C249.537,-162.047 254.745,-146.238 259.158,-132.842"/>
<polygon fill="#00cd00" stroke="#00cd00" points="262.538,-133.768 262.342,-123.175 255.889,-131.578 262.538,-133.768"/>
<text text-anchor="middle" x="299" y="-144.8" font-family="Times New Roman,serif" font-size="14.00">vehiclePlanInfo</text>
</g>
<!-- n11&#45;&gt;n7 -->
<g id="edge28" class="edge"><title>n11&#45;&gt;n7</title>
<path fill="none" stroke="#00cd00" d="M386.619,-173.799C387.714,-162.163 389.184,-146.548 390.437,-133.237"/>
<polygon fill="#00cd00" stroke="#00cd00" points="393.931,-133.459 391.383,-123.175 386.962,-132.803 393.931,-133.459"/>
<text text-anchor="middle" x="400" y="-144.8" font-family="Times New Roman,serif" font-size="14.00">rrm</text>
</g>
<!-- n12&#45;&gt;n2 -->
<g id="edge9" class="edge"><title>n12&#45;&gt;n2</title>
<path fill="none" stroke="#00cd00" d="M268,-86.799C268,-75.1626 268,-59.5479 268,-46.2368"/>
<polygon fill="#00cd00" stroke="#00cd00" points="271.5,-46.1754 268,-36.1754 264.5,-46.1755 271.5,-46.1754"/>
<text text-anchor="middle" x="294.5" y="-57.8" font-family="Times New Roman,serif" font-size="14.00">vehicleID</text>
</g>
<!-- n12&#45;&gt;n12 -->
<g id="edge33" class="edge"><title>n12&#45;&gt;n12</title>
<path fill="none" stroke="#008b8b" stroke-dasharray="5,2" d="M305.015,-112.827C315.21,-112.449 323,-109.84 323,-105 323,-101.975 319.957,-99.8216 315.186,-98.5396"/>
<polygon fill="#008b8b" stroke="#008b8b" points="315.392,-95.036 305.015,-97.1731 314.46,-101.974 315.392,-95.036"/>
<text text-anchor="middle" x="335.5" y="-108.8" font-family="Times New Roman,serif" font-size="14.00">list</text>
<text text-anchor="middle" x="335.5" y="-93.8" font-family="Times New Roman,serif" font-size="14.00">type</text>
</g>
<!-- n13 -->
<g id="node13" class="node"><title>n13</title>
<g id="a_node13"><a xlink:href="file:///C:/SadlWorkspace25/ReqAggregator-v2/Graphs/SadlImplicitModel.owl.svg" xlink:title="Event">
<polygon fill="none" stroke="black" points="232,-297 178,-297 178,-261 232,-261 232,-297"/>
<text text-anchor="middle" x="205" y="-275.3" font-family="Times New Roman,serif" font-size="14.00">Event</text>
</a>
</g>
</g>
<!-- n13&#45;&gt;n8 -->
<g id="edge10" class="edge"><title>n13&#45;&gt;n8</title>
<path fill="none" stroke="blue" stroke-dasharray="5,2" d="M177.71,-274.788C142.42,-270.009 83.9337,-259.746 71,-243 66.0272,-236.562 65.5803,-228.22 67.0312,-220.2"/>
<polygon fill="blue" stroke="blue" points="70.4541,-220.95 69.6861,-210.383 63.6968,-219.123 70.4541,-220.95"/>
<text text-anchor="middle" x="97" y="-231.8" font-family="Times New Roman,serif" font-size="14.00">subClass</text>
</g>
<!-- n13&#45;&gt;n9 -->
<g id="edge22" class="edge"><title>n13&#45;&gt;n9</title>
<path fill="none" stroke="blue" stroke-dasharray="5,2" d="M232.036,-275.049C295.687,-267.996 450.31,-250.216 459,-243 483.869,-222.349 459.555,-197.263 482,-174 508.438,-146.597 546.95,-130.139 581.746,-120.302"/>
<polygon fill="blue" stroke="blue" points="582.697,-123.671 591.448,-117.699 580.883,-116.91 582.697,-123.671"/>
<text text-anchor="middle" x="508" y="-188.3" font-family="Times New Roman,serif" font-size="14.00">subClass</text>
</g>
<!-- n13&#45;&gt;n10 -->
<g id="edge17" class="edge"><title>n13&#45;&gt;n10</title>
<path fill="none" stroke="blue" stroke-dasharray="5,2" d="M177.529,-271.439C150.321,-263.589 114.759,-248.843 130,-228 132.745,-224.246 147.96,-218.613 166.242,-212.957"/>
<polygon fill="blue" stroke="blue" points="167.467,-216.244 176.032,-210.007 165.448,-209.541 167.467,-216.244"/>
<text text-anchor="middle" x="156" y="-231.8" font-family="Times New Roman,serif" font-size="14.00">subClass</text>
</g>
<!-- n13&#45;&gt;n11 -->
<g id="edge27" class="edge"><title>n13&#45;&gt;n11</title>
<path fill="none" stroke="blue" stroke-dasharray="5,2" d="M232.249,-261.039C240.915,-255.46 250.463,-249.116 259,-243 267.746,-236.734 268.518,-233.084 278,-228 289.461,-221.854 302.193,-216.539 314.761,-212.037"/>
<polygon fill="blue" stroke="blue" points="315.996,-215.313 324.316,-208.753 313.721,-208.693 315.996,-215.313"/>
<text text-anchor="middle" x="304" y="-231.8" font-family="Times New Roman,serif" font-size="14.00">subClass</text>
</g>
<!-- n14 -->
<g id="node14" class="node"><title>n14</title>
<polygon fill="#00008b" stroke="black" points="923,-123 827,-123 827,-87 923,-87 923,-123"/>
<text text-anchor="middle" x="875" y="-101.3" font-family="Times New Roman,serif" font-size="14.00" fill="white">RouteRequest</text>
</g>
<!-- n14&#45;&gt;n15 -->
<g id="edge12" class="edge"><title>n14&#45;&gt;n15</title>
<path fill="none" stroke="#00cd00" d="M885.908,-86.7987C889.295,-81.2065 892.939,-74.9161 896,-69 899.861,-61.5377 903.684,-53.2521 907.034,-45.6069"/>
<polygon fill="#00cd00" stroke="#00cd00" points="910.268,-46.9456 910.99,-36.3754 903.834,-44.1881 910.268,-46.9456"/>
<text text-anchor="middle" x="935" y="-57.8" font-family="Times New Roman,serif" font-size="14.00">vehicleInfo</text>
</g>
<!-- n14&#45;&gt;n16 -->
<g id="edge13" class="edge"><title>n14&#45;&gt;n16</title>
<path fill="none" stroke="#00cd00" d="M853.003,-86.942C845.677,-81.2475 837.479,-74.8605 830,-69 821.531,-62.364 820.767,-58.5128 811,-54 771.577,-35.784 722.863,-27.0231 686.85,-22.8242"/>
<polygon fill="#00cd00" stroke="#00cd00" points="686.897,-19.3088 676.578,-21.7094 686.142,-26.268 686.897,-19.3088"/>
<text text-anchor="middle" x="861" y="-57.8" font-family="Times New Roman,serif" font-size="14.00">vehicleInfo</text>
</g>
<!-- n15&#45;&gt;n15 -->
<g id="edge30" class="edge"><title>n15&#45;&gt;n15</title>
<path fill="none" stroke="#008b8b" stroke-dasharray="5,2" d="M1012.37,-21.3367C1023.07,-20.7118 1030,-19.5996 1030,-18 1030,-17.0002 1027.29,-16.1909 1022.65,-15.5719"/>
<polygon fill="#008b8b" stroke="#008b8b" points="1022.64,-12.0576 1012.37,-14.6633 1022.03,-19.0304 1022.64,-12.0576"/>
<text text-anchor="middle" x="1042.5" y="-21.8" font-family="Times New Roman,serif" font-size="14.00">list</text>
<text text-anchor="middle" x="1042.5" y="-6.8" font-family="Times New Roman,serif" font-size="14.00">type</text>
</g>
<!-- n15&#45;&gt;n15 -->
<g id="edge34" class="edge"><title>n15&#45;&gt;n15</title>
<path fill="none" stroke="#008b8b" stroke-dasharray="5,2" d="M1012.31,-25.7739C1036.59,-25.2466 1055,-22.6553 1055,-18 1055,-14.0176 1041.53,-11.5456 1022.43,-10.5841"/>
<polygon fill="#008b8b" stroke="#008b8b" points="1022.43,-7.08188 1012.31,-10.2261 1022.18,-14.0775 1022.43,-7.08188"/>
<text text-anchor="middle" x="1067.5" y="-21.8" font-family="Times New Roman,serif" font-size="14.00">list</text>
<text text-anchor="middle" x="1067.5" y="-6.8" font-family="Times New Roman,serif" font-size="14.00">type</text>
</g>
<!-- n16&#45;&gt;n16 -->
<g id="edge31" class="edge"><title>n16&#45;&gt;n16</title>
<path fill="none" stroke="#008b8b" stroke-dasharray="5,2" d="M676.735,-20.589C686.901,-20.4079 694.5,-19.5449 694.5,-18 694.5,-17.0344 691.532,-16.3352 686.824,-15.9024"/>
<polygon fill="#008b8b" stroke="#008b8b" points="686.893,-12.4018 676.735,-15.411 686.553,-19.3935 686.893,-12.4018"/>
<text text-anchor="middle" x="707" y="-21.8" font-family="Times New Roman,serif" font-size="14.00">list</text>
<text text-anchor="middle" x="707" y="-6.8" font-family="Times New Roman,serif" font-size="14.00">type</text>
</g>
<!-- n16&#45;&gt;n16 -->
<g id="edge32" class="edge"><title>n16&#45;&gt;n16</title>
<path fill="none" stroke="#008b8b" stroke-dasharray="5,2" d="M676.668,-23.0497C698.783,-23.8668 719.5,-22.1836 719.5,-18 719.5,-14.4701 704.751,-12.7202 686.858,-12.7504"/>
<polygon fill="#008b8b" stroke="#008b8b" points="686.598,-9.25473 676.668,-12.9503 686.735,-16.2534 686.598,-9.25473"/>
<text text-anchor="middle" x="732" y="-21.8" font-family="Times New Roman,serif" font-size="14.00">list</text>
<text text-anchor="middle" x="732" y="-6.8" font-family="Times New Roman,serif" font-size="14.00">type</text>
</g>
<!-- n16&#45;&gt;n16 -->
<g id="edge35" class="edge"><title>n16&#45;&gt;n16</title>
<path fill="none" stroke="#008b8b" stroke-dasharray="5,2" d="M676.53,-24.8799C709.132,-27.4095 744.5,-25.1162 744.5,-18 744.5,-11.6343 716.199,-9.12787 686.893,-10.4806"/>
<polygon fill="#008b8b" stroke="#008b8b" points="686.296,-7.01076 676.53,-11.1201 686.727,-13.9975 686.296,-7.01076"/>
<text text-anchor="middle" x="757" y="-21.8" font-family="Times New Roman,serif" font-size="14.00">list</text>
<text text-anchor="middle" x="757" y="-6.8" font-family="Times New Roman,serif" font-size="14.00">type</text>
</g>
<!-- n18 -->
<g id="node18" class="node"><title>n18</title>
<polygon fill="blue" stroke="black" points="879,-297 847.995,-279 879,-261 910.005,-279 879,-297"/>
<text text-anchor="middle" x="879" y="-275.3" font-family="Times New Roman,serif" font-size="14.00" fill="white">Air</text>
</g>
<!-- n18&#45;&gt;n5 -->
<g id="edge20" class="edge"><title>n18&#45;&gt;n5</title>
<path fill="none" stroke="black" d="M879,-260.799C879,-249.163 879,-233.548 879,-220.237"/>
<polygon fill="black" stroke="black" points="882.5,-220.175 879,-210.175 875.5,-220.175 882.5,-220.175"/>
<text text-anchor="middle" x="888.5" y="-231.8" font-family="Times New Roman,serif" font-size="14.00">is a</text>
</g>
<!-- n19 -->
<g id="node19" class="node"><title>n19</title>
<polygon fill="blue" stroke="black" points="983,-297 927.701,-279 983,-261 1038.3,-279 983,-297"/>
<text text-anchor="middle" x="983" y="-275.3" font-family="Times New Roman,serif" font-size="14.00" fill="white">Ground</text>
</g>
<!-- n19&#45;&gt;n5 -->
<g id="edge21" class="edge"><title>n19&#45;&gt;n5</title>
<path fill="none" stroke="black" d="M968.099,-265.822C952.471,-253.049 927.514,-232.651 907.984,-216.689"/>
<polygon fill="black" stroke="black" points="909.947,-213.773 899.989,-210.155 905.517,-219.193 909.947,-213.773"/>
<text text-anchor="middle" x="947.5" y="-231.8" font-family="Times New Roman,serif" font-size="14.00">is a</text>
</g>
<!-- n20 -->
<g id="node20" class="node"><title>n20</title>
<polygon fill="blue" stroke="black" points="769,-210 720.068,-192 769,-174 817.932,-192 769,-210"/>
<text text-anchor="middle" x="769" y="-188.3" font-family="Times New Roman,serif" font-size="14.00" fill="white">newxx</text>
</g>
<!-- n20&#45;&gt;n9 -->
<g id="edge23" class="edge"><title>n20&#45;&gt;n9</title>
<path fill="none" stroke="black" d="M754.4,-179.181C738.651,-166.432 713.158,-145.794 693.252,-129.68"/>
<polygon fill="black" stroke="black" points="695.357,-126.882 685.383,-123.31 690.953,-132.322 695.357,-126.882"/>
<text text-anchor="middle" x="732.5" y="-144.8" font-family="Times New Roman,serif" font-size="14.00">is a</text>
</g>
</g>
</svg>
