<?xml version="1.0" encoding="UTF-8" standalone="no"?>
<!DOCTYPE svg PUBLIC "-//W3C//DTD SVG 1.1//EN"
 "http://www.w3.org/Graphics/SVG/1.1/DTD/svg11.dtd">
<!-- Generated by graphviz version 2.38.0 (20140413.2041)
 -->
<!-- Title: gnull Pages: 1 -->
<svg width="377pt" height="154pt"
 viewBox="0.00 0.00 377.38 154.00" xmlns="http://www.w3.org/2000/svg" xmlns:xlink="http://www.w3.org/1999/xlink">
<g id="graph0" class="graph" transform="scale(1 1) rotate(0) translate(4 150)">
<title>gnull</title>
<polygon fill="white" stroke="none" points="-4,4 -4,-150 373.385,-150 373.385,4 -4,4"/>
<text text-anchor="middle" x="74" y="-130.8" font-family="Times New Roman,serif" font-size="14.00">Graph of Ontology File</text>
<!-- n1 -->
<g id="node1" class="node"><title>n1</title>
<polygon fill="#00008b" stroke="black" points="175.385,-123 121.385,-123 121.385,-87 175.385,-87 175.385,-123"/>
<text text-anchor="middle" x="148.385" y="-101.3" font-family="Times New Roman,serif" font-size="14.00" fill="white">List</text>
</g>
<!-- n1&#45;&gt;n1 -->
<g id="edge4" class="edge"><title>n1&#45;&gt;n1</title>
<path fill="none" stroke="#00cd00" d="M175.626,-112.867C185.409,-113.036 193.385,-110.414 193.385,-105 193.385,-101.701 190.423,-99.4382 185.895,-98.2123"/>
<polygon fill="#00cd00" stroke="#00cd00" points="185.937,-94.6975 175.626,-97.1327 185.205,-101.659 185.937,-94.6975"/>
<text text-anchor="middle" x="203.885" y="-101.3" font-family="Times New Roman,serif" font-size="14.00">rest</text>
</g>
<!-- n2 -->
<g id="node2" class="node"><title>n2</title>
<g id="a_node2"><a xlink:href="file:///C:/SadlWorkspace25/ReqAggregator-v2/Graphs/XMLSchema.svg" xlink:title="xsd:int">
<polygon fill="none" stroke="black" points="175.385,-36 121.385,-36 121.385,-0 175.385,-0 175.385,-36"/>
<text text-anchor="middle" x="148.385" y="-14.3" font-family="Times New Roman,serif" font-size="14.00">xsd:int</text>
</a>
</g>
</g>
<!-- n1&#45;&gt;n2 -->
<g id="edge1" class="edge"><title>n1&#45;&gt;n2</title>
<path fill="none" stroke="#00cd00" d="M121.377,-101.261C84.2403,-96.8727 20.3994,-86.8884 6.38478,-69 -22.7194,-31.8512 59.8722,-22.2321 111.077,-19.7889"/>
<polygon fill="#00cd00" stroke="#00cd00" points="111.316,-23.2822 121.166,-19.3795 111.032,-16.288 111.316,-23.2822"/>
<text text-anchor="middle" x="66.3848" y="-57.8" font-family="Times New Roman,serif" font-size="14.00">minLengthRestriction</text>
</g>
<!-- n1&#45;&gt;n2 -->
<g id="edge2" class="edge"><title>n1&#45;&gt;n2</title>
<path fill="none" stroke="#00cd00" d="M148.385,-86.799C148.385,-75.1626 148.385,-59.5479 148.385,-46.2368"/>
<polygon fill="#00cd00" stroke="#00cd00" points="151.885,-46.1754 148.385,-36.1754 144.885,-46.1755 151.885,-46.1754"/>
<text text-anchor="middle" x="195.385" y="-57.8" font-family="Times New Roman,serif" font-size="14.00">lengthRestriction</text>
</g>
<!-- n1&#45;&gt;n2 -->
<g id="edge3" class="edge"><title>n1&#45;&gt;n2</title>
<path fill="none" stroke="#00cd00" d="M175.558,-102.153C197.88,-99.036 228.204,-90.7709 243.385,-69 260.436,-44.546 219.092,-31.1307 185.668,-24.5066"/>
<polygon fill="#00cd00" stroke="#00cd00" points="186.091,-21.0257 175.623,-22.6641 184.828,-27.9108 186.091,-21.0257"/>
<text text-anchor="middle" x="307.885" y="-57.8" font-family="Times New Roman,serif" font-size="14.00">maxLengthRestriction</text>
</g>
</g>
</svg>
