<?xml version="1.0" encoding="UTF-8" standalone="no"?>
<!DOCTYPE svg PUBLIC "-//W3C//DTD SVG 1.1//EN"
 "http://www.w3.org/Graphics/SVG/1.1/DTD/svg11.dtd">
<!-- Generated by graphviz version 2.38.0 (20140413.2041)
 -->
<!-- Title: gnull Pages: 1 -->
<svg width="215pt" height="154pt"
 viewBox="0.00 0.00 214.50 154.00" xmlns="http://www.w3.org/2000/svg" xmlns:xlink="http://www.w3.org/1999/xlink">
<g id="graph0" class="graph" transform="scale(1 1) rotate(0) translate(4 150)">
<title>gnull</title>
<polygon fill="white" stroke="none" points="-4,4 -4,-150 210.5,-150 210.5,4 -4,4"/>
<text text-anchor="middle" x="74" y="-130.8" font-family="Times New Roman,serif" font-size="14.00">Graph of Ontology File</text>
<!-- n1 -->
<g id="node1" class="node"><title>n1</title>
<polygon fill="#00008b" stroke="black" points="134.5,-123 30.5,-123 30.5,-87 134.5,-87 134.5,-123"/>
<text text-anchor="middle" x="82.5" y="-101.3" font-family="Times New Roman,serif" font-size="14.00" fill="white">UnittedQuantity</text>
</g>
<!-- n2 -->
<g id="node2" class="node"><title>n2</title>
<g id="a_node2"><a xlink:href="file:///C:/SadlWorkspace25/ReqAggregator-v2/Graphs/XMLSchema.svg" xlink:title="xsd:string">
<polygon fill="none" stroke="black" points="71,-36 0,-36 0,-0 71,-0 71,-36"/>
<text text-anchor="middle" x="35.5" y="-14.3" font-family="Times New Roman,serif" font-size="14.00">xsd:string</text>
</a>
</g>
</g>
<!-- n1&#45;&gt;n2 -->
<g id="edge1" class="edge"><title>n1&#45;&gt;n2</title>
<path fill="none" stroke="#00cd00" d="M72.9888,-86.799C66.3635,-74.8169 57.4058,-58.6168 49.9079,-45.0569"/>
<polygon fill="#00cd00" stroke="#00cd00" points="52.8989,-43.2331 44.997,-36.1754 46.773,-46.6204 52.8989,-43.2331"/>
<text text-anchor="middle" x="73" y="-57.8" font-family="Times New Roman,serif" font-size="14.00">unit</text>
</g>
<!-- n3 -->
<g id="node3" class="node"><title>n3</title>
<g id="a_node3"><a xlink:href="file:///C:/SadlWorkspace25/ReqAggregator-v2/Graphs/XMLSchema.svg" xlink:title="xsd:decimal">
<polygon fill="none" stroke="black" points="172,-36 89,-36 89,-0 172,-0 172,-36"/>
<text text-anchor="middle" x="130.5" y="-14.3" font-family="Times New Roman,serif" font-size="14.00">xsd:decimal</text>
</a>
</g>
</g>
<!-- n1&#45;&gt;n3 -->
<g id="edge2" class="edge"><title>n1&#45;&gt;n3</title>
<path fill="none" stroke="#00cd00" d="M92.2135,-86.799C98.9798,-74.8169 108.128,-58.6168 115.786,-45.0569"/>
<polygon fill="#00cd00" stroke="#00cd00" points="118.931,-46.604 120.801,-36.1754 112.836,-43.1619 118.931,-46.604"/>
<text text-anchor="middle" x="123" y="-57.8" font-family="Times New Roman,serif" font-size="14.00">value</text>
</g>
<!-- n4 -->
<g id="node4" class="node"><title>n4</title>
<polygon fill="#00008b" stroke="black" points="206.5,-123 152.5,-123 152.5,-87 206.5,-87 206.5,-123"/>
<text text-anchor="middle" x="179.5" y="-101.3" font-family="Times New Roman,serif" font-size="14.00" fill="white">Event</text>
</g>
</g>
</svg>
