<?xml version="1.0" encoding="UTF-8" standalone="no"?>
<!DOCTYPE svg PUBLIC "-//W3C//DTD SVG 1.1//EN"
 "http://www.w3.org/Graphics/SVG/1.1/DTD/svg11.dtd">
<!-- Generated by graphviz version 2.38.0 (20140413.2041)
 -->
<!-- Title: gnull Pages: 1 -->
<svg width="250pt" height="154pt"
 viewBox="0.00 0.00 250.00 154.00" xmlns="http://www.w3.org/2000/svg" xmlns:xlink="http://www.w3.org/1999/xlink">
<g id="graph0" class="graph" transform="scale(1 1) rotate(0) translate(4 150)">
<title>gnull</title>
<polygon fill="white" stroke="none" points="-4,4 -4,-150 246,-150 246,4 -4,4"/>
<text text-anchor="middle" x="74" y="-130.8" font-family="Times New Roman,serif" font-size="14.00">Graph of Ontology File</text>
<!-- n1 -->
<g id="node1" class="node"><title>n1</title>
<polygon fill="#00008b" stroke="black" points="66,-123 0,-123 0,-87 66,-87 66,-123"/>
<text text-anchor="middle" x="33" y="-101.3" font-family="Times New Roman,serif" font-size="14.00" fill="white">Equation</text>
</g>
<!-- n2 -->
<g id="node2" class="node"><title>n2</title>
<g id="a_node2"><a xlink:href="file:///C:/SadlWorkspace25/ReqAggregator-v2/Graphs/XMLSchema.svg" xlink:title="xsd:string">
<polygon fill="none" stroke="black" points="96.5,-36 25.5,-36 25.5,-0 96.5,-0 96.5,-36"/>
<text text-anchor="middle" x="61" y="-14.3" font-family="Times New Roman,serif" font-size="14.00">xsd:string</text>
</a>
</g>
</g>
<!-- n1&#45;&gt;n2 -->
<g id="edge1" class="edge"><title>n1&#45;&gt;n2</title>
<path fill="none" stroke="#00cd00" d="M30.7319,-86.8619C30.0592,-76.9826 30.3092,-64.4826 34,-54 35.1214,-50.815 36.655,-47.6908 38.4258,-44.7008"/>
<polygon fill="#00cd00" stroke="#00cd00" points="41.4866,-46.4272 44.2756,-36.206 35.7213,-42.457 41.4866,-46.4272"/>
<text text-anchor="middle" x="64.5" y="-57.8" font-family="Times New Roman,serif" font-size="14.00">expression</text>
</g>
<!-- n3 -->
<g id="node3" class="node"><title>n3</title>
<polygon fill="#00008b" stroke="black" points="217.5,-123 106.5,-123 106.5,-87 217.5,-87 217.5,-123"/>
<text text-anchor="middle" x="162" y="-101.3" font-family="Times New Roman,serif" font-size="14.00" fill="white">ExternalEquation</text>
</g>
<!-- n3&#45;&gt;n2 -->
<g id="edge3" class="edge"><title>n3&#45;&gt;n2</title>
<path fill="none" stroke="#00cd00" d="M141.561,-86.799C126.502,-74.1257 105.836,-56.7335 89.206,-42.7377"/>
<polygon fill="#00cd00" stroke="#00cd00" points="91.3132,-39.9366 81.4085,-36.1754 86.8059,-45.2924 91.3132,-39.9366"/>
<text text-anchor="middle" x="140.5" y="-57.8" font-family="Times New Roman,serif" font-size="14.00">location</text>
</g>
<!-- n4 -->
<g id="node4" class="node"><title>n4</title>
<g id="a_node4"><a xlink:href="file:///C:/SadlWorkspace25/ReqAggregator-v2/Graphs/XMLSchema.svg" xlink:title="xsd:anyURI">
<polygon fill="none" stroke="black" points="226.5,-36 143.5,-36 143.5,-0 226.5,-0 226.5,-36"/>
<text text-anchor="middle" x="185" y="-14.3" font-family="Times New Roman,serif" font-size="14.00">xsd:anyURI</text>
</a>
</g>
</g>
<!-- n3&#45;&gt;n4 -->
<g id="edge2" class="edge"><title>n3&#45;&gt;n4</title>
<path fill="none" stroke="#00cd00" d="M166.654,-86.799C169.834,-75.0474 174.112,-59.2383 177.737,-45.8421"/>
<polygon fill="#00cd00" stroke="#00cd00" points="181.119,-46.7425 180.353,-36.1754 174.362,-44.9141 181.119,-46.7425"/>
<text text-anchor="middle" x="208.5" y="-57.8" font-family="Times New Roman,serif" font-size="14.00">externalURI</text>
</g>
</g>
</svg>
