<?xml version="1.0" encoding="UTF-8" standalone="no"?>
<!DOCTYPE svg PUBLIC "-//W3C//DTD SVG 1.1//EN"
 "http://www.w3.org/Graphics/SVG/1.1/DTD/svg11.dtd">
<!-- Generated by graphviz version 2.38.0 (20140413.2041)
 -->
<!-- Title: gnull Pages: 1 -->
<svg width="2674pt" height="154pt"
 viewBox="0.00 0.00 2673.80 154.00" xmlns="http://www.w3.org/2000/svg" xmlns:xlink="http://www.w3.org/1999/xlink">
<g id="graph0" class="graph" transform="scale(1 1) rotate(0) translate(4 150)">
<title>gnull</title>
<polygon fill="white" stroke="none" points="-4,4 -4,-150 2669.8,-150 2669.8,4 -4,4"/>
<text text-anchor="middle" x="74" y="-130.8" font-family="Times New Roman,serif" font-size="14.00">Graph of Ontology File</text>
<!-- n1 -->
<g id="node1" class="node"><title>n1</title>
<polygon fill="blue" stroke="black" points="47.7962,-123 0.202957,-105 47.7962,-87 95.3894,-105 47.7962,-123"/>
<text text-anchor="middle" x="47.7962" y="-101.3" font-family="Times New Roman,serif" font-size="14.00" fill="white">power</text>
</g>
<!-- n2 -->
<g id="node2" class="node"><title>n2</title>
<g id="a_node2"><a xlink:href="file:///C:/SadlWorkspace25/ReqAggregator-v2/Graphs/SadlBaseModel.owl.svg" xlink:title="ExternalEquation">
<polygon fill="none" stroke="black" points="1442.3,-36 1331.3,-36 1331.3,-0 1442.3,-0 1442.3,-36"/>
<text text-anchor="middle" x="1386.8" y="-14.3" font-family="Times New Roman,serif" font-size="14.00">ExternalEquation</text>
</a>
</g>
</g>
<!-- n1&#45;&gt;n2 -->
<g id="edge1" class="edge"><title>n1&#45;&gt;n2</title>
<path fill="none" stroke="black" d="M72.7195,-96.2447C112.161,-84.407 191.594,-62.3281 260.796,-54 467.983,-29.066 1112.17,-21.381 1320.84,-19.5137"/>
<polygon fill="black" stroke="black" points="1321.06,-23.012 1331.03,-19.424 1321,-16.0122 1321.06,-23.012"/>
<text text-anchor="middle" x="270.296" y="-57.8" font-family="Times New Roman,serif" font-size="14.00">is a</text>
</g>
<!-- n3 -->
<g id="node3" class="node"><title>n3</title>
<polygon fill="blue" stroke="black" points="156.796,-123 113.394,-105 156.796,-87 200.198,-105 156.796,-123"/>
<text text-anchor="middle" x="156.796" y="-101.3" font-family="Times New Roman,serif" font-size="14.00" fill="white">cotan</text>
</g>
<!-- n3&#45;&gt;n2 -->
<g id="edge2" class="edge"><title>n3&#45;&gt;n2</title>
<path fill="none" stroke="black" d="M178.879,-96.0856C188.054,-92.9795 198.862,-89.5547 208.796,-87 285.028,-67.3968 304.57,-62.7299 382.796,-54 565.446,-33.6167 1127.79,-23.0739 1320.89,-19.9835"/>
<polygon fill="black" stroke="black" points="1321.23,-23.4787 1331.17,-19.8205 1321.12,-16.4796 1321.23,-23.4787"/>
<text text-anchor="middle" x="392.296" y="-57.8" font-family="Times New Roman,serif" font-size="14.00">is a</text>
</g>
<!-- n4 -->
<g id="node4" class="node"><title>n4</title>
<polygon fill="blue" stroke="black" points="283.796,-123 217.437,-105 283.796,-87 350.155,-105 283.796,-123"/>
<text text-anchor="middle" x="283.796" y="-101.3" font-family="Times New Roman,serif" font-size="14.00" fill="white">arc_cotan</text>
</g>
<!-- n4&#45;&gt;n2 -->
<g id="edge3" class="edge"><title>n4&#45;&gt;n2</title>
<path fill="none" stroke="black" d="M311.873,-94.5889C348.764,-82.7026 415.799,-62.7474 474.796,-54 638.157,-29.7786 1140.17,-21.7965 1321.01,-19.667"/>
<polygon fill="black" stroke="black" points="1321.21,-23.1649 1331.17,-19.5495 1321.13,-16.1654 1321.21,-23.1649"/>
<text text-anchor="middle" x="484.296" y="-57.8" font-family="Times New Roman,serif" font-size="14.00">is a</text>
</g>
<!-- n5 -->
<g id="node5" class="node"><title>n5</title>
<polygon fill="blue" stroke="black" points="406.796,-123 368.087,-105 406.796,-87 445.506,-105 406.796,-123"/>
<text text-anchor="middle" x="406.796" y="-101.3" font-family="Times New Roman,serif" font-size="14.00" fill="white">mod</text>
</g>
<!-- n5&#45;&gt;n2 -->
<g id="edge4" class="edge"><title>n5&#45;&gt;n2</title>
<path fill="none" stroke="black" d="M425.617,-95.7077C453.437,-83.9098 507.466,-62.7419 555.796,-54 702.268,-27.5061 1151.77,-20.9854 1321.23,-19.4507"/>
<polygon fill="black" stroke="black" points="1321.29,-22.9503 1331.26,-19.3627 1321.23,-15.9506 1321.29,-22.9503"/>
<text text-anchor="middle" x="565.296" y="-57.8" font-family="Times New Roman,serif" font-size="14.00">is a</text>
</g>
<!-- n6 -->
<g id="node6" class="node"><title>n6</title>
<polygon fill="blue" stroke="black" points="490.796,-123 463.796,-105 490.796,-87 517.796,-105 490.796,-123"/>
<text text-anchor="middle" x="490.796" y="-101.3" font-family="Times New Roman,serif" font-size="14.00" fill="white">or</text>
</g>
<!-- n6&#45;&gt;n2 -->
<g id="edge5" class="edge"><title>n6&#45;&gt;n2</title>
<path fill="none" stroke="black" d="M505.258,-96.4527C511.733,-93.262 519.531,-89.6739 526.796,-87 579.51,-67.5981 593.306,-62.7149 648.796,-54 777.233,-33.8286 1165.02,-23.6565 1320.88,-20.296"/>
<polygon fill="black" stroke="black" points="1321.33,-23.7874 1331.26,-20.0751 1321.18,-16.7889 1321.33,-23.7874"/>
<text text-anchor="middle" x="658.296" y="-57.8" font-family="Times New Roman,serif" font-size="14.00">is a</text>
</g>
<!-- n7 -->
<g id="node7" class="node"><title>n7</title>
<polygon fill="blue" stroke="black" points="567.796,-123 535.454,-105 567.796,-87 600.138,-105 567.796,-123"/>
<text text-anchor="middle" x="567.796" y="-101.3" font-family="Times New Roman,serif" font-size="14.00" fill="white">sec</text>
</g>
<!-- n7&#45;&gt;n2 -->
<g id="edge6" class="edge"><title>n7&#45;&gt;n2</title>
<path fill="none" stroke="black" d="M584.708,-96.2179C592.01,-93.0599 600.716,-89.5611 608.796,-87 672.626,-66.7685 689.474,-63.219 755.796,-54 960.707,-25.5164 1206.09,-20.0043 1321.16,-19.0769"/>
<polygon fill="black" stroke="black" points="1321.24,-22.5765 1331.21,-19.005 1321.19,-15.5767 1321.24,-22.5765"/>
<text text-anchor="middle" x="765.296" y="-57.8" font-family="Times New Roman,serif" font-size="14.00">is a</text>
</g>
<!-- n8 -->
<g id="node8" class="node"><title>n8</title>
<polygon fill="blue" stroke="black" points="654.796,-123 618.262,-105 654.796,-87 691.33,-105 654.796,-123"/>
<text text-anchor="middle" x="654.796" y="-101.3" font-family="Times New Roman,serif" font-size="14.00" fill="white">sum</text>
</g>
<!-- n8&#45;&gt;n2 -->
<g id="edge7" class="edge"><title>n8&#45;&gt;n2</title>
<path fill="none" stroke="black" d="M673.803,-96.1357C682.001,-92.964 691.764,-89.4769 700.796,-87 779.233,-65.4894 800.099,-64.1555 880.796,-54 1038.01,-34.2151 1224.21,-24.9514 1320.98,-21.1933"/>
<polygon fill="black" stroke="black" points="1321.33,-24.6824 1331.19,-20.8042 1321.07,-17.6874 1321.33,-24.6824"/>
<text text-anchor="middle" x="890.296" y="-57.8" font-family="Times New Roman,serif" font-size="14.00">is a</text>
</g>
<!-- n9 -->
<g id="node9" class="node"><title>n9</title>
<polygon fill="blue" stroke="black" points="764.796,-123 709.497,-105 764.796,-87 820.095,-105 764.796,-123"/>
<text text-anchor="middle" x="764.796" y="-101.3" font-family="Times New Roman,serif" font-size="14.00" fill="white">arc_sec</text>
</g>
<!-- n9&#45;&gt;n2 -->
<g id="edge8" class="edge"><title>n9&#45;&gt;n2</title>
<path fill="none" stroke="black" d="M793.073,-96.1556C804.178,-93.1624 817.054,-89.7995 828.796,-87 897.732,-70.5646 914.7,-64.426 984.796,-54 1102.51,-36.4919 1241.01,-26.8082 1320.88,-22.274"/>
<polygon fill="black" stroke="black" points="1321.49,-25.7457 1331.27,-21.6942 1321.1,-18.7566 1321.49,-25.7457"/>
<text text-anchor="middle" x="994.296" y="-57.8" font-family="Times New Roman,serif" font-size="14.00">is a</text>
</g>
<!-- n10 -->
<g id="node10" class="node"><title>n10</title>
<polygon fill="blue" stroke="black" points="883.796,-123 837.88,-105 883.796,-87 929.712,-105 883.796,-123"/>
<text text-anchor="middle" x="883.796" y="-101.3" font-family="Times New Roman,serif" font-size="14.00" fill="white">cosec</text>
</g>
<!-- n10&#45;&gt;n2 -->
<g id="edge9" class="edge"><title>n10&#45;&gt;n2</title>
<path fill="none" stroke="black" d="M907.512,-96.2635C917.171,-93.2189 928.473,-89.7911 938.796,-87 1001.34,-70.089 1016.95,-65.0329 1080.8,-54 1163.15,-39.7689 1259.01,-29.8685 1321.18,-24.3155"/>
<polygon fill="black" stroke="black" points="1321.59,-27.7932 1331.24,-23.4285 1320.98,-20.8202 1321.59,-27.7932"/>
<text text-anchor="middle" x="1090.3" y="-57.8" font-family="Times New Roman,serif" font-size="14.00">is a</text>
</g>
<!-- n11 -->
<g id="node11" class="node"><title>n11</title>
<polygon fill="blue" stroke="black" points="993.796,-123 947.88,-105 993.796,-87 1039.71,-105 993.796,-123"/>
<text text-anchor="middle" x="993.796" y="-101.3" font-family="Times New Roman,serif" font-size="14.00" fill="white">minus</text>
</g>
<!-- n11&#45;&gt;n2 -->
<g id="edge10" class="edge"><title>n11&#45;&gt;n2</title>
<path fill="none" stroke="black" d="M1018.16,-96.4649C1027.71,-93.512 1038.77,-90.0958 1048.8,-87 1096.35,-72.3186 1107.28,-65.0916 1155.8,-54 1211.05,-41.3666 1274.82,-32.0963 1321.34,-26.282"/>
<polygon fill="black" stroke="black" points="1321.79,-29.7528 1331.29,-25.058 1320.93,-22.8051 1321.79,-29.7528"/>
<text text-anchor="middle" x="1165.3" y="-57.8" font-family="Times New Roman,serif" font-size="14.00">is a</text>
</g>
<!-- n12 -->
<g id="node12" class="node"><title>n12</title>
<polygon fill="blue" stroke="black" points="1084.8,-123 1057.8,-105 1084.8,-87 1111.8,-105 1084.8,-123"/>
<text text-anchor="middle" x="1084.8" y="-101.3" font-family="Times New Roman,serif" font-size="14.00" fill="white">is</text>
</g>
<!-- n12&#45;&gt;n2 -->
<g id="edge11" class="edge"><title>n12&#45;&gt;n2</title>
<path fill="none" stroke="black" d="M1099.24,-96.4053C1105.71,-93.2059 1113.51,-89.624 1120.8,-87 1187.6,-62.9301 1266.74,-43.8461 1321.23,-32.0964"/>
<polygon fill="black" stroke="black" points="1322.06,-35.4982 1331.11,-29.9883 1320.6,-28.6524 1322.06,-35.4982"/>
<text text-anchor="middle" x="1239.3" y="-57.8" font-family="Times New Roman,serif" font-size="14.00">is a</text>
</g>
<!-- n13 -->
<g id="node13" class="node"><title>n13</title>
<polygon fill="blue" stroke="black" points="1182.8,-123 1129.67,-105 1182.8,-87 1235.92,-105 1182.8,-123"/>
<text text-anchor="middle" x="1182.8" y="-101.3" font-family="Times New Roman,serif" font-size="14.00" fill="white">arc_tan</text>
</g>
<!-- n13&#45;&gt;n2 -->
<g id="edge12" class="edge"><title>n13&#45;&gt;n2</title>
<path fill="none" stroke="black" d="M1205.41,-94.5787C1236.78,-81.506 1294.38,-57.5056 1336.28,-40.0491"/>
<polygon fill="black" stroke="black" points="1337.88,-43.1742 1345.76,-36.0972 1335.19,-36.7126 1337.88,-43.1742"/>
<text text-anchor="middle" x="1307.3" y="-57.8" font-family="Times New Roman,serif" font-size="14.00">is a</text>
</g>
<!-- n14 -->
<g id="node14" class="node"><title>n14</title>
<polygon fill="blue" stroke="black" points="1283.8,-123 1254.47,-105 1283.8,-87 1313.12,-105 1283.8,-123"/>
<text text-anchor="middle" x="1283.8" y="-101.3" font-family="Times New Roman,serif" font-size="14.00" fill="white">sin</text>
</g>
<!-- n14&#45;&gt;n2 -->
<g id="edge13" class="edge"><title>n14&#45;&gt;n2</title>
<path fill="none" stroke="black" d="M1295.61,-94.2494C1310.73,-81.7765 1337.41,-59.7547 1358.02,-42.7458"/>
<polygon fill="black" stroke="black" points="1360.38,-45.3359 1365.87,-36.2714 1355.93,-39.9369 1360.38,-45.3359"/>
<text text-anchor="middle" x="1351.3" y="-57.8" font-family="Times New Roman,serif" font-size="14.00">is a</text>
</g>
<!-- n15 -->
<g id="node15" class="node"><title>n15</title>
<polygon fill="blue" stroke="black" points="1386.8,-123 1330.66,-105 1386.8,-87 1442.93,-105 1386.8,-123"/>
<text text-anchor="middle" x="1386.8" y="-101.3" font-family="Times New Roman,serif" font-size="14.00" fill="white">product</text>
</g>
<!-- n15&#45;&gt;n2 -->
<g id="edge14" class="edge"><title>n15&#45;&gt;n2</title>
<path fill="none" stroke="black" d="M1386.8,-86.799C1386.8,-75.1626 1386.8,-59.5479 1386.8,-46.2368"/>
<polygon fill="black" stroke="black" points="1390.3,-46.1754 1386.8,-36.1754 1383.3,-46.1755 1390.3,-46.1754"/>
<text text-anchor="middle" x="1396.3" y="-57.8" font-family="Times New Roman,serif" font-size="14.00">is a</text>
</g>
<!-- n16 -->
<g id="node16" class="node"><title>n16</title>
<polygon fill="blue" stroke="black" points="1487.8,-123 1460.8,-105 1487.8,-87 1514.8,-105 1487.8,-123"/>
<text text-anchor="middle" x="1487.8" y="-101.3" font-family="Times New Roman,serif" font-size="14.00" fill="white">le</text>
</g>
<!-- n16&#45;&gt;n2 -->
<g id="edge15" class="edge"><title>n16&#45;&gt;n2</title>
<path fill="none" stroke="black" d="M1476.21,-94.2494C1461.39,-81.7765 1435.22,-59.7547 1415.01,-42.7458"/>
<polygon fill="black" stroke="black" points="1417.22,-40.0326 1407.32,-36.2714 1412.72,-45.3884 1417.22,-40.0326"/>
<text text-anchor="middle" x="1453.3" y="-57.8" font-family="Times New Roman,serif" font-size="14.00">is a</text>
</g>
<!-- n17 -->
<g id="node17" class="node"><title>n17</title>
<polygon fill="blue" stroke="black" points="1566.8,-123 1532.78,-105 1566.8,-87 1600.81,-105 1566.8,-123"/>
<text text-anchor="middle" x="1566.8" y="-101.3" font-family="Times New Roman,serif" font-size="14.00" fill="white">cos</text>
</g>
<!-- n17&#45;&gt;n2 -->
<g id="edge16" class="edge"><title>n17&#45;&gt;n2</title>
<path fill="none" stroke="black" d="M1550.29,-95.4218C1530.57,-85.2473 1496.5,-67.9138 1466.8,-54 1456.92,-49.3723 1446.27,-44.5804 1436.07,-40.0823"/>
<polygon fill="black" stroke="black" points="1437.42,-36.8545 1426.86,-36.0472 1434.61,-43.2661 1437.42,-36.8545"/>
<text text-anchor="middle" x="1507.3" y="-57.8" font-family="Times New Roman,serif" font-size="14.00">is a</text>
</g>
<!-- n18 -->
<g id="node18" class="node"><title>n18</title>
<polygon fill="blue" stroke="black" points="1645.8,-123 1618.8,-105 1645.8,-87 1672.8,-105 1645.8,-123"/>
<text text-anchor="middle" x="1645.8" y="-101.3" font-family="Times New Roman,serif" font-size="14.00" fill="white">ge</text>
</g>
<!-- n18&#45;&gt;n2 -->
<g id="edge17" class="edge"><title>n18&#45;&gt;n2</title>
<path fill="none" stroke="black" d="M1630.86,-96.595C1624.44,-93.5009 1616.8,-89.9476 1609.8,-87 1570.91,-70.6444 1561.03,-66.6797 1520.8,-54 1498.72,-47.0437 1474.3,-40.3703 1452.42,-34.7505"/>
<polygon fill="black" stroke="black" points="1453.12,-31.3165 1442.57,-32.2454 1451.4,-38.1009 1453.12,-31.3165"/>
<text text-anchor="middle" x="1574.3" y="-57.8" font-family="Times New Roman,serif" font-size="14.00">is a</text>
</g>
<!-- n19 -->
<g id="node19" class="node"><title>n19</title>
<polygon fill="blue" stroke="black" points="1736.8,-123 1690.88,-105 1736.8,-87 1782.71,-105 1736.8,-123"/>
<text text-anchor="middle" x="1736.8" y="-101.3" font-family="Times New Roman,serif" font-size="14.00" fill="white">divide</text>
</g>
<!-- n19&#45;&gt;n2 -->
<g id="edge18" class="edge"><title>n19&#45;&gt;n2</title>
<path fill="none" stroke="black" d="M1714.89,-95.4847C1686.11,-84.567 1633.82,-65.6578 1587.8,-54 1543.1,-42.6787 1491.89,-33.8214 1452.35,-27.8496"/>
<polygon fill="black" stroke="black" points="1452.7,-24.3641 1442.3,-26.3559 1451.67,-31.2881 1452.7,-24.3641"/>
<text text-anchor="middle" x="1647.3" y="-57.8" font-family="Times New Roman,serif" font-size="14.00">is a</text>
</g>
<!-- n20 -->
<g id="node20" class="node"><title>n20</title>
<polygon fill="blue" stroke="black" points="1833.8,-123 1800.62,-105 1833.8,-87 1866.98,-105 1833.8,-123"/>
<text text-anchor="middle" x="1833.8" y="-101.3" font-family="Times New Roman,serif" font-size="14.00" fill="white">abs</text>
</g>
<!-- n20&#45;&gt;n2 -->
<g id="edge19" class="edge"><title>n20&#45;&gt;n2</title>
<path fill="none" stroke="black" d="M1816.42,-96.3403C1808.93,-93.203 1800.02,-89.6865 1791.8,-87 1675.78,-49.1085 1533.84,-31.4868 1452.51,-23.9692"/>
<polygon fill="black" stroke="black" points="1452.69,-20.4712 1442.41,-23.0593 1452.06,-27.4429 1452.69,-20.4712"/>
<text text-anchor="middle" x="1737.3" y="-57.8" font-family="Times New Roman,serif" font-size="14.00">is a</text>
</g>
<!-- n21 -->
<g id="node21" class="node"><title>n21</title>
<polygon fill="blue" stroke="black" points="1941.8,-123 1884.82,-105 1941.8,-87 1998.77,-105 1941.8,-123"/>
<text text-anchor="middle" x="1941.8" y="-101.3" font-family="Times New Roman,serif" font-size="14.00" fill="white">arc_cos</text>
</g>
<!-- n21&#45;&gt;n2 -->
<g id="edge20" class="edge"><title>n21&#45;&gt;n2</title>
<path fill="none" stroke="black" d="M1914.9,-95.497C1878.2,-84.2327 1810.19,-64.5598 1750.8,-54 1647.37,-35.6123 1525.57,-26.3724 1452.36,-22.1368"/>
<polygon fill="black" stroke="black" points="1452.54,-18.6415 1442.36,-21.5719 1452.15,-25.6304 1452.54,-18.6415"/>
<text text-anchor="middle" x="1829.3" y="-57.8" font-family="Times New Roman,serif" font-size="14.00">is a</text>
</g>
<!-- n22 -->
<g id="node22" class="node"><title>n22</title>
<polygon fill="blue" stroke="black" points="2084.8,-123 2016.76,-105 2084.8,-87 2152.83,-105 2084.8,-123"/>
<text text-anchor="middle" x="2084.8" y="-101.3" font-family="Times New Roman,serif" font-size="14.00" fill="white">arc_cosec</text>
</g>
<!-- n22&#45;&gt;n2 -->
<g id="edge21" class="edge"><title>n22&#45;&gt;n2</title>
<path fill="none" stroke="black" d="M2049.95,-96.152C2036.75,-93.2217 2021.59,-89.9028 2007.8,-87 1934.61,-71.6045 1916.88,-64.2136 1842.8,-54 1704.72,-34.9639 1541.58,-25.5771 1452.68,-21.5572"/>
<polygon fill="black" stroke="black" points="1452.63,-18.0513 1442.48,-21.1047 1452.32,-25.0444 1452.63,-18.0513"/>
<text text-anchor="middle" x="1935.3" y="-57.8" font-family="Times New Roman,serif" font-size="14.00">is a</text>
</g>
<!-- n23 -->
<g id="node23" class="node"><title>n23</title>
<polygon fill="blue" stroke="black" points="2222.8,-123 2170.51,-105 2222.8,-87 2275.08,-105 2222.8,-123"/>
<text text-anchor="middle" x="2222.8" y="-101.3" font-family="Times New Roman,serif" font-size="14.00" fill="white">arc_sin</text>
</g>
<!-- n23&#45;&gt;n2 -->
<g id="edge22" class="edge"><title>n23&#45;&gt;n2</title>
<path fill="none" stroke="black" d="M2196.54,-95.9512C2185.84,-92.8612 2173.29,-89.4838 2161.8,-87 2068.16,-66.7728 2044.03,-64.3213 1948.8,-54 1769.85,-34.6072 1557.6,-25.0051 1452.51,-21.1418"/>
<polygon fill="black" stroke="black" points="1452.5,-17.639 1442.38,-20.7748 1452.25,-24.6345 1452.5,-17.639"/>
<text text-anchor="middle" x="2076.3" y="-57.8" font-family="Times New Roman,serif" font-size="14.00">is a</text>
</g>
<!-- n24 -->
<g id="node24" class="node"><title>n24</title>
<polygon fill="blue" stroke="black" points="2325.8,-123 2293.45,-105 2325.8,-87 2358.14,-105 2325.8,-123"/>
<text text-anchor="middle" x="2325.8" y="-101.3" font-family="Times New Roman,serif" font-size="14.00" fill="white">not</text>
</g>
<!-- n24&#45;&gt;n2 -->
<g id="edge23" class="edge"><title>n24&#45;&gt;n2</title>
<path fill="none" stroke="black" d="M2308.92,-96.1979C2301.37,-92.9601 2292.27,-89.4055 2283.8,-87 2199.66,-63.1201 2176.74,-63.5246 2089.8,-54 1856.45,-28.4359 1577.46,-21.5299 1452.72,-19.6751"/>
<polygon fill="black" stroke="black" points="1452.61,-16.1734 1442.57,-19.5303 1452.51,-23.1727 1452.61,-16.1734"/>
<text text-anchor="middle" x="2217.3" y="-57.8" font-family="Times New Roman,serif" font-size="14.00">is a</text>
</g>
<!-- n25 -->
<g id="node25" class="node"><title>n25</title>
<polygon fill="blue" stroke="black" points="2409.8,-123 2375.78,-105 2409.8,-87 2443.81,-105 2409.8,-123"/>
<text text-anchor="middle" x="2409.8" y="-101.3" font-family="Times New Roman,serif" font-size="14.00" fill="white">and</text>
</g>
<!-- n25&#45;&gt;n2 -->
<g id="edge24" class="edge"><title>n25&#45;&gt;n2</title>
<path fill="none" stroke="black" d="M2392,-96.3249C2384.34,-93.1851 2375.21,-89.6708 2366.8,-87 2307.51,-68.1877 2292.39,-62.6637 2230.8,-54 2080.92,-32.9178 1624.05,-23.0788 1452.67,-20.058"/>
<polygon fill="black" stroke="black" points="1452.59,-16.5561 1442.53,-19.8814 1452.47,-23.5551 1452.59,-16.5561"/>
<text text-anchor="middle" x="2316.3" y="-57.8" font-family="Times New Roman,serif" font-size="14.00">is a</text>
</g>
<!-- n26 -->
<g id="node26" class="node"><title>n26</title>
<polygon fill="blue" stroke="black" points="2488.8,-123 2461.8,-105 2488.8,-87 2515.8,-105 2488.8,-123"/>
<text text-anchor="middle" x="2488.8" y="-101.3" font-family="Times New Roman,serif" font-size="14.00" fill="white">lt</text>
</g>
<!-- n26&#45;&gt;n2 -->
<g id="edge25" class="edge"><title>n26&#45;&gt;n2</title>
<path fill="none" stroke="black" d="M2474.34,-96.4456C2467.86,-93.2537 2460.06,-89.6664 2452.8,-87 2399.66,-67.5043 2385.76,-62.4363 2329.8,-54 2160.27,-28.4465 1637.64,-21.2819 1452.58,-19.5182"/>
<polygon fill="black" stroke="black" points="1452.49,-16.0173 1442.45,-19.4239 1452.42,-23.017 1452.49,-16.0173"/>
<text text-anchor="middle" x="2410.3" y="-57.8" font-family="Times New Roman,serif" font-size="14.00">is a</text>
</g>
<!-- n27 -->
<g id="node27" class="node"><title>n27</title>
<polygon fill="blue" stroke="black" points="2563.8,-123 2533.63,-105 2563.8,-87 2593.96,-105 2563.8,-123"/>
<text text-anchor="middle" x="2563.8" y="-101.3" font-family="Times New Roman,serif" font-size="14.00" fill="white">tan</text>
</g>
<!-- n27&#45;&gt;n2 -->
<g id="edge26" class="edge"><title>n27&#45;&gt;n2</title>
<path fill="none" stroke="black" d="M2547.9,-96.319C2522.43,-84.4748 2470.56,-62.2574 2423.8,-54 2236.12,-20.8628 1650.27,-18.593 1452.65,-18.8027"/>
<polygon fill="black" stroke="black" points="1452.42,-15.3029 1442.42,-18.8162 1452.42,-22.3029 1452.42,-15.3029"/>
<text text-anchor="middle" x="2489.3" y="-57.8" font-family="Times New Roman,serif" font-size="14.00">is a</text>
</g>
<!-- n28 -->
<g id="node28" class="node"><title>n28</title>
<polygon fill="blue" stroke="black" points="2638.8,-123 2611.8,-105 2638.8,-87 2665.8,-105 2638.8,-123"/>
<text text-anchor="middle" x="2638.8" y="-101.3" font-family="Times New Roman,serif" font-size="14.00" fill="white">gt</text>
</g>
<!-- n28&#45;&gt;n2 -->
<g id="edge27" class="edge"><title>n28&#45;&gt;n2</title>
<path fill="none" stroke="black" d="M2624.19,-96.6571C2599.79,-84.8511 2548.87,-62.1489 2502.8,-54 2299.24,-17.9998 1660.28,-17.6912 1452.67,-18.591"/>
<polygon fill="black" stroke="black" points="1452.51,-15.0916 1442.53,-18.6374 1452.54,-22.0915 1452.51,-15.0916"/>
<text text-anchor="middle" x="2566.3" y="-57.8" font-family="Times New Roman,serif" font-size="14.00">is a</text>
</g>
</g>
</svg>
